<svg xmlns="http://www.w3.org/2000/svg" viewBox="0 0 100 100" width="100%" height="100%">
  <!-- Deep Space Rounded Background -->
  <rect width="100" height="100" rx="24" fill="#0D0D11" />
  
  <!-- Outer Pulse ring -->
  <circle cx="50" cy="46" r="28" fill="none" stroke="#ffffff" stroke-width="1.5" stroke-opacity="0.1" />
  
  <!-- Inner Pulse ring -->
  <circle cx="50" cy="46" r="20" fill="none" stroke="#00F2FE" stroke-width="2" stroke-opacity="0.3" />
  
  <!-- Sleek Location Pin -->
  <path d="M50 26 C43 26 37 32 37 39 C37 49 50 64 50 64 C50 64 63 49 63 39 C63 32 57 26 50 26 Z M50 44 C47 44 45 42 45 39 C45 36 47 34 50 34 C53 34 55 36 55 39 C55 42 53 44 50 44 Z" fill="url(#pinGrad)" />
  
  <defs>
    <linearGradient id="pinGrad" x1="0%" y1="0%" x2="100%" y2="100%">
      <stop offset="0%" stop-color="#00F2FE" />
      <stop offset="100%" stop-color="#4FACFE" />
    </linearGradient>
  </defs>
</svg>
